<?xml version="1.0" encoding="UTF-8"?>
<svg id="Ebene_2" data-name="Ebene 2" xmlns="http://www.w3.org/2000/svg" viewBox="0 0 64.04 22.47">
  <defs>
    <style>
      .cls-1 {
        fill: #010101;
      }

      .cls-2 {
        letter-spacing: 0em;
      }

      .cls-3 {
        letter-spacing: 0em;
      }

      .cls-4 {
        fill: #787878;
        font-family: SpaceGrotesk-SemiBold, 'Space Grotesk';
        font-size: 3px;
        font-weight: 600;
      }

      .cls-5 {
        letter-spacing: -.1em;
      }

      .cls-6 {
        fill: #b91b57;
      }

      .cls-7 {
        letter-spacing: -.02em;
      }

      .cls-8 {
        letter-spacing: -.02em;
      }

      .cls-9 {
        letter-spacing: -.03em;
      }

      .cls-10 {
        letter-spacing: 0em;
      }
    </style>
  </defs>
  <g id="Ebene_1-2" data-name="Ebene 1">
    <g id="Layer_1-2" data-name="Layer 1-2">
      <g>
        <path class="cls-1" d="M35.05,13.63h-1.55v-4.67h-4.88v4.67h-1.55V3.41h1.55v4.24h4.88V3.41h1.55v10.22Z"/>
        <path class="cls-1" d="M38.24,2.98c.23,0,.43.07.6.2.17.13.26.36.26.67s-.09.53-.26.67c-.17.14-.37.21-.6.21s-.44-.07-.62-.21-.26-.36-.26-.67.09-.54.26-.67.38-.2.62-.2ZM38.99,5.92v7.72h-1.52v-7.72h1.52Z"/>
        <path class="cls-1" d="M44.26,5.77c1.01,0,1.81.31,2.39.94.58.63.87,1.48.87,2.56v.83h-5.18c.02.79.23,1.4.62,1.82s.95.63,1.67.63c.5,0,.94-.04,1.32-.14.39-.09.78-.23,1.2-.41v1.26c-.39.18-.78.31-1.17.39s-.86.12-1.4.12c-.74,0-1.4-.15-1.98-.44-.57-.3-1.02-.74-1.34-1.32s-.48-1.31-.48-2.18.15-1.6.44-2.2.7-1.06,1.22-1.38c.52-.32,1.13-.48,1.83-.48h0ZM44.26,6.95c-.54,0-.98.18-1.31.53-.33.35-.52.85-.58,1.5h3.64c0-.6-.15-1.09-.44-1.47-.28-.38-.72-.57-1.31-.57h0Z"/>
        <path class="cls-1" d="M53.08,5.77c.31,0,.59.02.84.07l-.16,1.42c-.25-.07-.51-.1-.77-.1-.39,0-.75.1-1.09.29s-.6.46-.81.82c-.21.36-.31.79-.31,1.3v4.07h-1.52v-7.72h1.2l.2,1.37h.06c.24-.41.56-.77.96-1.07.4-.3.86-.45,1.39-.45,0,0,0,0,.01,0Z"/>
        <path class="cls-1" d="M61.72,9.77c0,1.28-.33,2.27-.99,2.96-.66.7-1.55,1.05-2.66,1.05-.7,0-1.32-.15-1.85-.47-.54-.31-.96-.76-1.27-1.36-.31-.6-.47-1.32-.47-2.18,0-1.28.32-2.26.97-2.96.65-.69,1.54-1.04,2.66-1.04.71,0,1.33.15,1.87.47.54.31.96.76,1.27,1.35s.47,1.32.47,2.18ZM56.04,9.77c0,.87.16,1.55.49,2.03.33.49.85.73,1.57.73s1.24-.24,1.57-.73c.33-.49.49-1.17.49-2.03s-.16-1.55-.49-2.03-.86-.71-1.58-.71-1.24.24-1.56.71-.49,1.15-.49,2.03Z"/>
      </g>
      <path class="cls-6" d="M19.23,0H3.89C3.28,0,2.79.49,2.79,1.1v14.75c0,.63.51,1.15,1.15,1.15h0c.63,0,1.15-.51,1.15-1.15V3.39c0-.61.49-1.1,1.1-1.1h10.69c.6,0,1.09.49,1.1,1.09l.1,10.19c0,.61-.49,1.11-1.1,1.11h-3.3c-.61,0-1.1-.49-1.1-1.1l-.02-7.3c0-.63-.51-1.14-1.15-1.14h0c-.63,0-1.15.51-1.15,1.15l.02,9.61c0,.61.49,1.1,1.1,1.1h7.86c.61,0,1.1-.49,1.1-1.1V1.1c0-.61-.49-1.1-1.1-1.1,0,0-.01,0-.01,0Z"/>
    </g>
    <text class="cls-4" transform="translate(0 21.61)"><tspan x="0" y="0">Open Sou</tspan><tspan class="cls-8" x="13.8" y="0">r</tspan><tspan class="cls-3" x="14.92" y="0">ce Di</tspan><tspan class="cls-10" x="21.97" y="0">s</tspan><tspan class="cls-2" x="23.52" y="0">tribu</tspan><tspan class="cls-7" x="30.61" y="0">t</tspan><tspan x="31.92" y="0">ed Ledger</tspan><tspan class="cls-9" x="46.47" y="0"> </tspan><tspan class="cls-5" x="47.14" y="0">T</tspan><tspan x="48.62" y="0">echnology</tspan></text>
  </g>
</svg>